<?xml version="1.0" standalone="no"?>
<!DOCTYPE svg PUBLIC "-//W3C//DTD SVG 20010904//EN"
 "http://www.w3.org/TR/2001/REC-SVG-20010904/DTD/svg10.dtd">
<svg version="1.0" xmlns="http://www.w3.org/2000/svg"
 width="878.000000pt" height="462.000000pt" viewBox="0 0 878.000000 462.000000"
 preserveAspectRatio="xMidYMid meet">

<g transform="translate(0.000000,462.000000) scale(0.100000,-0.100000)"
fill="#000000" stroke="none">
<path d="M2185 3656 c-156 -38 -280 -172 -331 -357 -24 -85 -24 -269 0 -359
41 -159 133 -282 253 -338 53 -24 69 -27 173 -27 153 1 208 21 301 114 117
117 166 267 157 471 -13 258 -143 448 -338 494 -76 18 -146 19 -215 2z m186
-160 c98 -41 145 -140 156 -328 7 -118 -7 -234 -37 -302 -19 -44 -85 -111
-126 -126 -34 -13 -126 -13 -161 1 -46 17 -102 79 -123 136 -31 84 -44 226
-31 338 18 152 63 239 145 276 49 22 130 24 177 5z"/>
<path d="M930 3115 l0 -535 95 0 95 0 0 214 0 214 188 4 c212 3 243 12 324 86
64 59 91 120 96 217 5 100 -19 171 -78 233 -87 91 -138 102 -462 102 l-258 0
0 -535z m531 348 c69 -43 90 -156 42 -222 -41 -54 -73 -64 -234 -69 l-149 -5
0 163 0 162 153 -4 c137 -3 156 -5 188 -25z"/>
<path d="M2804 3633 c2 -10 62 -227 131 -483 70 -256 133 -489 141 -517 l15
-53 98 0 98 0 93 378 c51 207 95 381 98 386 6 11 4 18 123 -421 l92 -343 98 0
c54 0 100 4 103 8 2 4 66 237 141 517 74 281 138 518 141 528 5 15 -3 17 -79
17 -64 0 -86 -3 -90 -14 -3 -8 -47 -176 -98 -373 -51 -197 -95 -361 -98 -365
-4 -4 -44 128 -89 295 -45 166 -92 337 -104 380 l-21 77 -98 0 -98 0 -9 -32
c-5 -18 -46 -186 -92 -373 -46 -187 -86 -343 -89 -347 -3 -4 -51 164 -106 372
l-100 380 -103 0 c-94 0 -103 -2 -98 -17z"/>
<path d="M4310 3115 l0 -535 345 0 345 0 0 85 0 85 -247 2 -248 3 -3 148 -3
147 201 0 200 0 0 80 0 80 -200 0 -200 0 0 140 0 140 248 2 247 3 3 78 3 77
-346 0 -345 0 0 -535z"/>
<path d="M5170 3116 l0 -536 95 0 95 0 0 220 0 221 137 -3 137 -3 81 -215 81
-215 102 -3 c56 -1 102 -1 102 2 0 2 -40 107 -90 232 -49 125 -90 231 -90 234
0 4 11 12 25 18 43 20 112 91 136 140 31 65 31 186 0 257 -30 68 -94 130 -161
157 -52 21 -73 23 -352 26 l-298 3 0 -535z m555 357 c52 -28 77 -71 77 -134
-1 -61 -25 -106 -72 -134 -31 -17 -56 -20 -202 -23 l-168 -4 0 162 0 162 163
-4 c142 -3 167 -6 202 -25z"/>
<path d="M6590 3116 l0 -536 218 0 c342 0 437 19 507 102 71 83 90 219 46 311
-28 59 -92 114 -151 131 l-45 13 45 20 c158 70 189 285 61 413 -70 70 -87 73
-403 77 l-278 4 0 -535z m471 373 c88 -27 125 -124 79 -206 -37 -66 -58 -73
-224 -73 l-146 0 0 145 0 145 126 0 c70 0 144 -5 165 -11z m45 -460 c79 -38
107 -149 57 -218 -38 -52 -74 -61 -240 -61 l-153 0 0 150 0 150 147 0 c128 0
152 -3 189 -21z"/>
<path d="M7560 3115 l0 -535 95 0 95 0 0 535 0 535 -95 0 -95 0 0 -535z"/>
<path d="M0 1130 l0 -1130 4390 0 4390 0 0 1130 0 1130 -4390 0 -4390 0 0
-1130z m2315 884 c43 -17 45 -40 44 -491 -2 -408 -12 -799 -19 -703 -1 27 -5
36 -7 22 -2 -12 -9 -20 -14 -17 -15 10 -79 -6 -79 -20 0 -15 -22 -25 -56 -25
-15 0 -24 -6 -24 -15 0 -11 -11 -15 -40 -15 -22 0 -43 -1 -47 -2 -3 -2 -15 22
-27 53 -12 31 -26 62 -33 70 -6 8 -13 37 -16 64 -2 28 -4 -124 -5 -337 l-2
-388 -474 0 -474 0 -24 28 -24 29 -3 395 -3 395 25 29 25 29 161 3 161 3 0
190 c0 192 4 219 39 246 11 9 66 12 176 13 l160 0 -3 200 -3 200 25 25 25 25
260 0 c143 0 267 -3 276 -6z m1450 -128 c129 -39 217 -90 300 -171 123 -122
207 -281 240 -460 22 -116 16 -305 -14 -420 -70 -267 -253 -468 -508 -556
l-98 -34 -432 -3 -433 -3 0 841 0 841 428 -3 427 -4 90 -28z m1791 -426 c79
-250 194 -618 256 -817 62 -200 116 -363 119 -363 4 0 471 743 513 818 4 7
-94 170 -248 412 -141 219 -256 402 -256 405 0 3 135 4 301 3 l301 -3 124
-215 c68 -118 127 -216 131 -217 5 -1 67 96 138 217 l130 219 233 1 c184 0
232 -3 226 -12 -4 -7 -113 -181 -242 -387 -203 -326 -233 -377 -224 -396 8
-17 472 -759 540 -863 l14 -22 -303 0 -304 1 -135 230 c-74 127 -141 244 -149
260 -8 16 -17 29 -21 29 -3 0 -75 -117 -160 -260 l-154 -260 -489 2 -490 3
-46 162 -46 163 -226 0 -225 0 -50 -165 -49 -165 -212 0 -212 0 14 43 c8 23
118 380 245 792 127 413 238 771 246 798 l16 47 276 -2 275 -3 143 -455z"/>
<path d="M3340 1086 l0 -456 95 0 c111 0 145 11 208 69 86 79 130 209 130 386
0 124 -16 203 -62 293 -60 118 -120 154 -268 160 l-103 4 0 -456z"/>
<path d="M5019 1178 l-65 -233 130 -3 c71 -1 131 -1 133 1 5 5 -117 449 -127
460 -3 4 -35 -97 -71 -225z"/>
</g>
</svg>
