<?xml version="1.0" encoding="UTF-8"?>
<svg version="1.1" xmlns="http://www.w3.org/2000/svg" width="460" height="230">
<path d="M0 0 C151.8 0 303.6 0 460 0 C460 75.9 460 151.8 460 230 C308.2 230 156.4 230 0 230 C0 154.1 0 78.2 0 0 Z " fill="#207345" transform="translate(0,0)"/>
<path d="M0 0 C55.11 0 110.22 0 167 0 C167 54.12 167 108.24 167 164 C111.89 164 56.78 164 0 164 C0 109.88 0 55.76 0 0 Z " fill="#FAFCFA" transform="translate(25,32)"/>
<path d="M0 0 C0 3.96 0 7.92 0 12 C2.34714111 11.98428955 2.34714111 11.98428955 4.74169922 11.96826172 C10.53008753 11.93214592 16.31846583 11.90913025 22.10693359 11.89013672 C24.61541415 11.88005989 27.12388292 11.86639821 29.63232422 11.84912109 C33.23147488 11.82494663 36.83047067 11.81353388 40.4296875 11.8046875 C41.55680145 11.79436493 42.68391541 11.78404236 43.84518433 11.77340698 C44.88611237 11.77325592 45.92704041 11.77310486 46.99951172 11.77294922 C47.91884491 11.768508 48.8381781 11.76406677 49.78536987 11.75949097 C52 12 52 12 54 14 C54.20403608 16.91127302 54.28314857 19.72780931 54.2746582 22.640625 C54.27976913 23.53503296 54.28488007 24.42944092 54.29014587 25.35095215 C54.30408449 28.31736886 54.30308206 31.28355438 54.30078125 34.25 C54.30466553 36.30501391 54.30899963 38.36002701 54.31376648 40.41503906 C54.32123766 44.72593792 54.32093069 49.03675488 54.31567383 53.34765625 C54.30987473 58.88304402 54.32681656 64.41809768 54.3500185 69.95343018 C54.36472016 74.1980995 54.36563248 78.44268766 54.36250877 82.68737793 C54.36302368 84.72880719 54.36829289 86.77024081 54.37832069 88.81164551 C54.39060031 91.66111237 54.38394495 94.50991941 54.37231445 97.359375 C54.37995819 98.2093103 54.38760193 99.05924561 54.39547729 99.93493652 C54.3742218 102.28027344 54.3742218 102.28027344 54 106 C50.71542381 108.18971746 49.7824019 108.24583902 45.9777832 108.22705078 C44.95695145 108.22689972 43.93611969 108.22674866 42.88435364 108.22659302 C41.78427475 108.21627045 40.68419586 108.20594788 39.55078125 108.1953125 C37.85915108 108.19106766 37.85915108 108.19106766 36.13334656 108.18673706 C32.52629042 108.17552916 28.91948127 108.15042323 25.3125 108.125 C22.86914421 108.114971 20.42578453 108.10584501 17.98242188 108.09765625 C11.98818587 108.07558779 5.99413483 108.04105356 0 108 C0 111.63 0 115.26 0 119 C-7.93738212 119.34278522 -15.09860894 118.22606656 -22.86193848 116.60708618 C-26.29189294 115.89217435 -29.72782578 115.20741296 -33.1640625 114.5234375 C-34.17913879 114.32065941 -34.17913879 114.32065941 -35.21472168 114.11378479 C-41.61034831 112.85057552 -48.02973635 111.85070061 -54.49560547 111.02612305 C-60.63841177 110.20181521 -65.83774138 108.68061599 -72 107 C-72 75.65 -72 44.3 -72 12 C-62.55543021 10.22914316 -53.17449946 8.50882637 -43.6875 7.0625 C-35.12513657 5.73022934 -26.64330719 4.20750995 -18.18823242 2.30688477 C-12.12973496 0.95599888 -6.23320926 0 0 0 Z " fill="#227246" transform="translate(116,53)"/>
<path d="M0 0 C0 3.96 0 7.92 0 12 C2.34714111 11.98428955 2.34714111 11.98428955 4.74169922 11.96826172 C10.53008753 11.93214592 16.31846583 11.90913025 22.10693359 11.89013672 C24.61541415 11.88005989 27.12388292 11.86639821 29.63232422 11.84912109 C33.23147488 11.82494663 36.83047067 11.81353388 40.4296875 11.8046875 C41.55680145 11.79436493 42.68391541 11.78404236 43.84518433 11.77340698 C44.88611237 11.77325592 45.92704041 11.77310486 46.99951172 11.77294922 C47.91884491 11.768508 48.8381781 11.76406677 49.78536987 11.75949097 C52 12 52 12 54 14 C54.18813821 16.80149514 54.2517501 19.50336003 54.22705078 22.30517578 C54.22734283 23.16378204 54.22763489 24.02238831 54.22793579 24.90701294 C54.22653922 27.75321457 54.21096273 30.59915644 54.1953125 33.4453125 C54.19158353 35.41543434 54.18873601 37.38555802 54.18673706 39.35568237 C54.17909146 44.54743548 54.15943504 49.73907714 54.1373291 54.93078613 C54.1168906 60.2259775 54.10773962 65.52118683 54.09765625 70.81640625 C54.07619001 81.21098654 54.04204292 91.60548401 54 102 C53.34 102 52.68 102 52 102 C50.76716229 98.30148687 50.86838653 94.89068897 50.88647461 91.0402832 C50.88632858 90.23029877 50.88618256 89.42031433 50.8860321 88.58578491 C50.886729 85.90742315 50.89451097 83.22913087 50.90234375 80.55078125 C50.90420872 78.69418882 50.90563225 76.8375959 50.90663147 74.98100281 C50.9104504 70.09344119 50.92027539 65.20590926 50.93133545 60.31835938 C50.94336102 54.45464441 50.94795478 48.59091951 50.95378876 42.72719574 C50.96348745 33.81810984 50.98264839 24.9090891 51 16 C34.17 16 17.34 16 0 16 C0 18.97 0 21.94 0 25 C5.61 25 11.22 25 17 25 C17 28.3 17 31.6 17 35 C11.39 35 5.78 35 0 35 C0 36.65 0 38.3 0 40 C5.61 40 11.22 40 17 40 C17 43.3 17 46.6 17 50 C11.39 50 5.78 50 0 50 C0 51.65 0 53.3 0 55 C5.61 55 11.22 55 17 55 C17 58.3 17 61.6 17 65 C11.39 65 5.78 65 0 65 C0 66.65 0 68.3 0 70 C5.61 70 11.22 70 17 70 C17 73.3 17 76.6 17 80 C14.97746094 80.07347656 14.97746094 80.07347656 12.9140625 80.1484375 C11.15102041 80.22346057 9.38800061 80.29900859 7.625 80.375 C6.73554687 80.4059375 5.84609375 80.436875 4.9296875 80.46875 C4.07890625 80.50742188 3.228125 80.54609375 2.3515625 80.5859375 C1.56604004 80.6173584 0.78051758 80.6487793 -0.02880859 80.68115234 C-2.23002939 80.8399465 -2.23002939 80.8399465 -4 83 C-4.66 81.02 -5.32 79.04 -6 77 C-6.66 77 -7.32 77 -8 77 C-8 75.68 -8 74.36 -8 73 C-9.32 72.67 -10.64 72.34 -12 72 C-11.47731534 69.23723823 -10.89130413 66.6739124 -10 64 C-9.46838485 58.06022302 -9.44254136 53.02951049 -13 48 C-16.85424845 44.49613777 -20.65811046 44.68009285 -25.6171875 44.828125 C-28.144711 45.01043817 -30.54913692 45.34643651 -33 46 C-33 46.66 -33 47.32 -33 48 C-34.25 49.625 -34.25 49.625 -36 51 C-37.32 51 -38.64 51 -40 51 C-40 50.01 -40 49.02 -40 48 C-40.8971875 47.814375 -40.8971875 47.814375 -41.8125 47.625 C-44 47 -44 47 -47 45 C-49.02542148 44.63648496 -49.02542148 44.63648496 -51.23046875 44.5859375 C-51.95387451 44.55032715 -52.67728027 44.5147168 -53.42260742 44.47802734 C-54.33502197 44.44402832 -55.24743652 44.4100293 -56.1875 44.375 C-59.095625 44.25125 -62.00375 44.1275 -65 44 C-65 52.25 -65 60.5 -65 69 C-65.66 67.68 -66.32 66.36 -67 65 C-67.66 65.99 -68.32 66.98 -69 68 C-69.99 68 -70.98 68 -72 68 C-72 49.52 -72 31.04 -72 12 C-62.55543021 10.22914316 -53.17449946 8.50882637 -43.6875 7.0625 C-35.12513657 5.73022934 -26.64330719 4.20750995 -18.18823242 2.30688477 C-12.12973496 0.95599888 -6.23320926 0 0 0 Z " fill="#1F7044" transform="translate(116,53)"/>
<path d="M0 0 C16.5 0 33 0 50 0 C50 28.71 50 57.42 50 87 C33.5 87 17 87 0 87 C0 84.36 0 81.72 0 79 C5.61 79 11.22 79 17 79 C17 75.7 17 72.4 17 69 C11.39 69 5.78 69 0 69 C0 67.35 0 65.7 0 64 C5.61 64 11.22 64 17 64 C17 60.7 17 57.4 17 54 C11.39 54 5.78 54 0 54 C0 52.35 0 50.7 0 49 C5.61 49 11.22 49 17 49 C17 45.7 17 42.4 17 39 C11.39 39 5.78 39 0 39 C0 37.35 0 35.7 0 34 C5.61 34 11.22 34 17 34 C17 30.7 17 27.4 17 24 C11.39 24 5.78 24 0 24 C0 22.35 0 20.7 0 19 C5.61 19 11.22 19 17 19 C17 15.7 17 12.4 17 9 C11.39 9 5.78 9 0 9 C0 6.03 0 3.06 0 0 Z " fill="#F5F9F6" transform="translate(116,69)"/>
<path d="M0 0 C3.68118821 2.32940762 7.02902792 5.05805583 9 9 C9.23798501 12.30975448 9.38267886 15.61835735 9.5234375 18.93359375 C9.74287301 22.33300118 9.74287301 22.33300118 13 25 C13.33 19.72 13.66 14.44 14 9 C14.66 9 15.32 9 16 9 C16.06058594 10.12019531 16.12117188 11.24039063 16.18359375 12.39453125 C16.26801424 13.86719984 16.35266149 15.33985544 16.4375 16.8125 C16.47681641 17.55048828 16.51613281 18.28847656 16.55664062 19.04882812 C16.74381035 22.23071342 16.98720793 24.96162378 18 28 C22.13399234 29.06966631 22.13399234 29.06966631 26.15625 28.0625 C29.03352628 24.84385196 28.67452022 21.49476618 28.75 17.3125 C28.77964844 16.51521484 28.80929687 15.71792969 28.83984375 14.89648438 C28.91044082 12.93153251 28.95749708 10.96576023 29 9 C29.66 9 30.32 9 31 9 C31 16.26 31 23.52 31 31 C30.34 31 29.68 31 29 31 C28.505 30.01 28.505 30.01 28 29 C27.484375 29.495 26.96875 29.99 26.4375 30.5 C23.19319983 32.49649241 20.73782666 32.21564385 17 32 C16.505 32.99 16.505 32.99 16 34 C15.01 33.67 14.02 33.34 13 33 C11.35 34.65 9.7 36.3 8 38 C6.515 37.505 6.515 37.505 5 37 C4.67 36.154375 4.34 35.30875 4 34.4375 C3.34 33.633125 2.68 32.82875 2 32 C-0.76275183 31.78331358 -3.43583052 31.94585746 -6.203125 32.0703125 C-10.56602761 31.96063059 -12.55942386 30.65211077 -16 28 C-19.92923955 22.76101393 -20.66298143 17.46719617 -20 11 C-18.45827236 6.37481709 -16.1277476 3.53895731 -12.0859375 0.9296875 C-8.02698438 -0.87935902 -4.29488344 -1.08375563 0 0 Z " fill="#247448" transform="translate(352,102)"/>
<path d="M0 0 C3.54099725 3.28189989 5.31471502 5.92468191 5.80859375 10.80859375 C5.92674018 15.48580249 5.63128889 19.1081229 3.5625 23.375 C3.5625 24.365 3.5625 25.355 3.5625 26.375 C4.5525 26.705 5.5425 27.035 6.5625 27.375 C5.5725 29.85 5.5725 29.85 4.5625 32.375 C4.02625 32.065625 3.49 31.75625 2.9375 31.4375 C-1.17241212 29.5988551 -4.89545407 29.35779219 -9.375 29.5 C-13.66987357 29.52468318 -16.71483934 28.63779374 -20.4375 26.375 C-23.83259232 21.00856375 -24.21657445 15.62757189 -23.4375 9.375 C-22.65056903 6.83330341 -21.67537208 4.74758815 -20.4375 2.375 C-19.7775 2.375 -19.1175 2.375 -18.4375 2.375 C-18.4375 1.715 -18.4375 1.055 -18.4375 0.375 C-12.56182441 -2.75869365 -5.9382208 -2.80715892 0 0 Z " fill="#EDF5F0" transform="translate(101.4375,98.625)"/>
<path d="M0 0 C2.866875 -0.103125 5.73375 -0.20625 8.6875 -0.3125 C10.02880981 -0.38078003 10.02880981 -0.38078003 11.3972168 -0.45043945 C15.7141528 -0.52547871 17.48951551 -0.38498766 21.05078125 2.30078125 C23.59681175 5.82644673 23.60949373 7.73354387 23 12 C21.6875 14.875 21.6875 14.875 20 17 C16.71480525 18.09506492 14.26336585 18.09960608 10.8125 18.0625 C9.18248047 18.04896484 9.18248047 18.04896484 7.51953125 18.03515625 C6.68808594 18.02355469 5.85664062 18.01195313 5 18 C5 21.63 5 25.26 5 29 C3.35 29 1.7 29 0 29 C0 19.43 0 9.86 0 0 Z " fill="#F5F9F7" transform="translate(52,98)"/>
<path d="M0 0 C3.68118821 2.32940762 7.02902792 5.05805583 9 9 C9.23798501 12.30975448 9.38267886 15.61835735 9.5234375 18.93359375 C9.74287301 22.33300118 9.74287301 22.33300118 13 25 C13.33 19.72 13.66 14.44 14 9 C14.66 9 15.32 9 16 9 C16.06058594 10.12019531 16.12117188 11.24039063 16.18359375 12.39453125 C16.26801424 13.86719984 16.35266149 15.33985544 16.4375 16.8125 C16.47681641 17.55048828 16.51613281 18.28847656 16.55664062 19.04882812 C16.74381035 22.23071342 16.98720793 24.96162378 18 28 C22.13399234 29.06966631 22.13399234 29.06966631 26.15625 28.0625 C29.03352628 24.84385196 28.67452022 21.49476618 28.75 17.3125 C28.77964844 16.51521484 28.80929687 15.71792969 28.83984375 14.89648438 C28.91044082 12.93153251 28.95749708 10.96576023 29 9 C29.66 9 30.32 9 31 9 C31 16.26 31 23.52 31 31 C30.34 31 29.68 31 29 31 C28.505 30.01 28.505 30.01 28 29 C27.484375 29.495 26.96875 29.99 26.4375 30.5 C23.19319983 32.49649241 20.73782666 32.21564385 17 32 C16.505 32.99 16.505 32.99 16 34 C15.01 33.67 14.02 33.34 13 33 C11.35 34.65 9.7 36.3 8 38 C6.515 37.505 6.515 37.505 5 37 C4.67 36.154375 4.34 35.30875 4 34.4375 C3.34 33.633125 2.68 32.82875 2 32 C-0.76275183 31.78331358 -3.43583052 31.94585746 -6.203125 32.0703125 C-10.56602761 31.96063059 -12.55942386 30.65211077 -16 28 C-19.92923955 22.76101393 -20.66298143 17.46719617 -20 11 C-18.45827236 6.37481709 -16.1277476 3.53895731 -12.0859375 0.9296875 C-8.02698438 -0.87935902 -4.29488344 -1.08375563 0 0 Z M-16 7 C-17.4097034 9.8194068 -17.16984647 12.23267226 -17.1875 15.375 C-17.20167969 16.51710938 -17.21585937 17.65921875 -17.23046875 18.8359375 C-17.00725331 21.90042066 -16.71788521 23.49663438 -15 26 C-11.05798439 28.85989368 -9.26518336 30.02181351 -4.375 29.9375 C0.35736548 28.62295403 2.98511279 27.46983665 5.8125 23.375 C7.7589547 17.84297086 7.72730186 13.18190559 5.875 7.625 C3.20172465 3.8824145 0.56955205 2.46159618 -3.95703125 1.6484375 C-9.62352774 1.23672265 -12.09497138 2.99972678 -16 7 Z " fill="#28754A" transform="translate(352,102)"/>
<path d="M0 0 C3.49923295 0.03343216 4.64698122 0.25025949 7.75 2.125 C10.86019533 5.52677614 11.09354642 8.716685 11.03515625 13.24609375 C10.56323556 16.66590256 8.95577598 18.7390947 6.75 21.3125 C3.55120571 23.65828248 0.64347111 23.78925156 -3.25 23.3125 C-6.75602851 21.08139095 -8.67004861 19.11969563 -10.25 15.3125 C-10.77218363 12.23986159 -10.8081414 9.38227772 -10.25 6.3125 C-7.8125 3.3125 -7.8125 3.3125 -5.25 1.3125 C-3.69014791 -0.24735209 -2.16093902 0.06797656 0 0 Z " fill="#257549" transform="translate(239.25,110.6875)"/>
<path d="M0 0 C0.33 0 0.66 0 1 0 C1.33 28.38 1.66 56.76 2 86 C2.66 86 3.32 86 4 86 C3.625 88.4375 3.625 88.4375 3 91 C0.49450555 92.25274723 -1.19735632 92.12029624 -4.00048828 92.11352539 C-5.56188034 92.11341209 -5.56188034 92.11341209 -7.15481567 92.11329651 C-8.28192963 92.10813522 -9.40904358 92.10297394 -10.5703125 92.09765625 C-11.72167694 92.0962413 -12.87304138 92.09482635 -14.05929565 92.09336853 C-17.74788986 92.08775716 -21.43642405 92.0752027 -25.125 92.0625 C-27.62109288 92.05748647 -30.1171867 92.05292331 -32.61328125 92.04882812 C-38.74220809 92.03778403 -44.87109976 92.0210348 -51 92 C-51.66 93.32 -52.32 94.64 -53 96 C-53.495 93.525 -53.495 93.525 -54 91 C-53.34 91 -52.68 91 -52 91 C-52.33 89.68 -52.66 88.36 -53 87 C-35.33333333 87 -17.66666667 87 0 87 C0 58.29 0 29.58 0 0 Z " fill="#4D8C6A" transform="translate(166,69)"/>
<path d="M0 0 C3.12498063 -0.02895976 6.2499269 -0.04678483 9.375 -0.0625 C10.70917969 -0.07506836 10.70917969 -0.07506836 12.0703125 -0.08789062 C13.34648437 -0.09272461 13.34648437 -0.09272461 14.6484375 -0.09765625 C15.43395996 -0.10289307 16.21948242 -0.10812988 17.02880859 -0.11352539 C19 0 19 0 21 1 C21 4.63 21 8.26 21 12 C21.66 12.33 22.32 12.66 23 13 C22.67 13.33 22.34 13.66 22 14 C28.6 14.33 35.2 14.66 42 15 C42 15.33 42 15.66 42 16 C35.07 16 28.14 16 21 16 C21 19.3 21 22.6 21 26 C27.93 26 34.86 26 42 26 C42 26.33 42 26.66 42 27 C35.07 27 28.14 27 21 27 C21 27.66 21 28.32 21 29 C20.34 29.33 19.68 29.66 19 30 C18.5316735 32.58605332 18.5316735 32.58605332 18.375 35.5625 C18.30023438 36.57441406 18.22546875 37.58632812 18.1484375 38.62890625 C18.09945312 39.41136719 18.05046875 40.19382813 18 41 C17.67 41 17.34 41 17 41 C17 37.7 17 34.4 17 31 C11.39 31 5.78 31 0 31 C0 29.35 0 27.7 0 26 C5.61 26 11.22 26 17 26 C17 22.7 17 19.4 17 16 C11.39 16 5.78 16 0 16 C0 14.35 0 12.7 0 11 C5.61 11 11.22 11 17 11 C17 7.7 17 4.4 17 1 C11.39 1 5.78 1 0 1 C0 0.67 0 0.34 0 0 Z " fill="#DFECE5" transform="translate(116,107)"/>
<path d="M0 0 C11.27272727 0 11.27272727 0 16 4 C17 5 17 5 17.25 8.25 C16.98438919 12.23416222 16.52486104 13.95275392 14 17 C10.06493066 19.29545711 6.47994538 19.17568413 2 19 C2 22.96 2 26.92 2 31 C1.34 31 0.68 31 0 31 C0 20.77 0 10.54 0 0 Z " fill="#257448" transform="translate(210,102)"/>
<path d="M0 0 C2.36497439 1.86708505 3.66030715 3.32061431 5 6 C5.16796875 8.05859375 5.16796875 8.05859375 5.1875 10.4375 C5.20167969 11.21996094 5.21585938 12.00242187 5.23046875 12.80859375 C5 15 5 15 3 18 C0.69 17.67 -1.62 17.34 -4 17 C-4 17.66 -4 18.32 -4 19 C-3.34 19.66 -2.68 20.32 -2 21 C-4.75 21.375 -4.75 21.375 -8 21 C-11.20788856 17.70769332 -12.26462236 14.93231861 -12.4375 10.4375 C-12.26207501 6.58464734 -11.4815047 4.05415963 -9 1 C-5.90826248 -0.54586876 -3.40570448 -0.29359521 0 0 Z " fill="#27724A" transform="translate(96,102)"/>
<path d="M0 0 C2.4375 1.5625 2.4375 1.5625 4 4 C4.33 6.31 4.66 8.62 5 11 C-0.28 11 -5.56 11 -11 11 C-9.84448274 17.90475759 -9.84448274 17.90475759 -6 20 C-3.70285813 20.02639829 -3.70285813 20.02639829 -1.3125 19.625 C-0.50425781 19.51414063 0.30398438 19.40328125 1.13671875 19.2890625 C1.75160156 19.19367188 2.36648438 19.09828125 3 19 C2.67 19.99 2.34 20.98 2 22 C-5.93326362 23.59010948 -5.93326362 23.59010948 -9.9375 21.375 C-13.34072898 17.45613027 -14.21870224 14.63833178 -13.9375 9.5 C-13.44586509 6.15353055 -12.89882605 4.84977201 -10.9375 1.9375 C-6.82601541 -0.77433026 -4.87015541 -0.69573649 0 0 Z " fill="#E9F3ED" transform="translate(297,111)"/>
<path d="M0 0 C3.9375 0.625 3.9375 0.625 6.375 2.1875 C7.9375 4.625 7.9375 4.625 8.9375 11.625 C3.6575 11.625 -1.6225 11.625 -7.0625 11.625 C-5.90698274 18.52975759 -5.90698274 18.52975759 -2.0625 20.625 C1.47973486 20.30872903 4.56394274 19.74951909 7.9375 18.625 C6.1875 22.5 6.1875 22.5 3.9375 23.625 C0.625 24 0.625 24 -3.0625 23.625 C-5.9375 21.1875 -5.9375 21.1875 -8.0625 18.625 C-8.3925 18.295 -8.7225 17.965 -9.0625 17.625 C-9.66847737 12.54344687 -10.16299297 7.26570495 -7.0625 2.9375 C-4.15352249 0.69516317 -3.43911766 0.21213249 0 0 Z " fill="#D3E4DA" transform="translate(398.0625,110.375)"/>
<path d="M0 0 C3.68118821 2.32940762 7.02902792 5.05805583 9 9 C9.75307551 17.7327795 8.76050448 24.14225657 3 31 C4.2065625 31.433125 4.2065625 31.433125 5.4375 31.875 C8 33 8 33 9 35 C4.25 34.25 4.25 34.25 2 32 C-0.43639977 31.90946964 -0.43639977 31.90946964 -3.1875 32.125 C-8.80030641 32.22063104 -11.55409133 31.4270546 -16 28 C-19.92923955 22.76101393 -20.66298143 17.46719617 -20 11 C-18.45827236 6.37481709 -16.1277476 3.53895731 -12.0859375 0.9296875 C-8.02698438 -0.87935902 -4.29488344 -1.08375563 0 0 Z M-16 7 C-17.4097034 9.8194068 -17.16984647 12.23267226 -17.1875 15.375 C-17.20167969 16.51710938 -17.21585937 17.65921875 -17.23046875 18.8359375 C-17.00725331 21.90042066 -16.71788521 23.49663438 -15 26 C-11.05798439 28.85989368 -9.26518336 30.02181351 -4.375 29.9375 C0.35736548 28.62295403 2.98511279 27.46983665 5.8125 23.375 C7.7589547 17.84297086 7.72730186 13.18190559 5.875 7.625 C3.20172465 3.8824145 0.56955205 2.46159618 -3.95703125 1.6484375 C-9.62352774 1.23672265 -12.09497138 2.99972678 -16 7 Z " fill="#D9E9DF" transform="translate(352,102)"/>
<path d="M0 0 C6.93 0 13.86 0 21 0 C21 3.3 21 6.6 21 10 C14.07 10 7.14 10 0 10 C0 6.7 0 3.4 0 0 Z " fill="#217146" transform="translate(137,138)"/>
<path d="M0 0 C6.93 0 13.86 0 21 0 C21 3.3 21 6.6 21 10 C14.07 10 7.14 10 0 10 C0 6.7 0 3.4 0 0 Z " fill="#207145" transform="translate(137,123)"/>
<path d="M0 0 C6.93 0 13.86 0 21 0 C21 3.3 21 6.6 21 10 C14.07 10 7.14 10 0 10 C0 6.7 0 3.4 0 0 Z " fill="#227248" transform="translate(137,108)"/>
<path d="M0 0 C6.93 0 13.86 0 21 0 C21 3.3 21 6.6 21 10 C14.07 10 7.14 10 0 10 C0 6.7 0 3.4 0 0 Z " fill="#247348" transform="translate(137,93)"/>
<path d="M0 0 C6.93 0 13.86 0 21 0 C21 3.3 21 6.6 21 10 C14.07 10 7.14 10 0 10 C0 6.7 0 3.4 0 0 Z " fill="#267349" transform="translate(137,78)"/>
<path d="M0 0 C0.33 0 0.66 0 1 0 C1 3.3 1 6.6 1 10 C8.26 10 15.52 10 23 10 C22.67 11.32 22.34 12.64 22 14 C7.90168316 14.83871007 -5.91229872 15.06849543 -20 14 C-20 12.68 -20 11.36 -20 10 C-14.06 10 -8.12 10 -2 10 C-2 7.69 -2 5.38 -2 3 C-1.34 3 -0.68 3 0 3 C0 2.01 0 1.02 0 0 Z " fill="#FBFDFB" transform="translate(136,93)"/>
<path d="M0 0 C0.33 0 0.66 0 1 0 C1.33 2.64 1.66 5.28 2 8 C2.66 7.34 3.32 6.68 4 6 C4 7.32 4 8.64 4 10 C5.32 10.33 6.64 10.66 8 11 C7.01 12.485 7.01 12.485 6 14 C12.27 14 18.54 14 25 14 C25 14.33 25 14.66 25 15 C17.74 15 10.48 15 3 15 C3 15.99 3 16.98 3 18 C2.34 18 1.68 18 1 18 C1 20.31 1 22.62 1 25 C0.67 25 0.34 25 0 25 C0 21.7 0 18.4 0 15 C-5.61 15 -11.22 15 -17 15 C-17 13.35 -17 11.7 -17 10 C-11.39 10 -5.78 10 0 10 C0 6.7 0 3.4 0 0 Z " fill="#DDEBE3" transform="translate(133,78)"/>
<path d="M0 0 C0.66 0 1.32 0 2 0 C2.34933594 1.07121094 2.69867188 2.14242187 3.05859375 3.24609375 C3.51807145 4.64328104 3.97771546 6.04041365 4.4375 7.4375 C4.78264648 8.49807617 4.78264648 8.49807617 5.13476562 9.58007812 C6.07421147 13.06306795 6.07421147 13.06306795 8 16 C9.65 10.72 11.3 5.44 13 0 C13.66 0 14.32 0 15 0 C17.42618025 5.54555486 19 10.9414281 19 17 C19.66 17 20.32 17 21 17 C21.38091797 15.28490234 21.38091797 15.28490234 21.76953125 13.53515625 C22.11650391 12.04411159 22.46419753 10.55323458 22.8125 9.0625 C22.97814453 8.30775391 23.14378906 7.55300781 23.31445312 6.77539062 C23.77816623 4.82429587 24.3807544 2.90744213 25 1 C25.99 0.67 26.98 0.34 28 0 C27.81824219 0.58265625 27.63648438 1.1653125 27.44921875 1.765625 C25.39764489 8.45691206 23.64771106 15.19880965 22 22 C21.01 22 20.02 22 19 22 C18.32635339 19.91891315 17.66133202 17.8350329 17 15.75 C16.62875 14.58984375 16.2575 13.4296875 15.875 12.234375 C15 9 15 9 15 5 C14.34 5 13.68 5 13 5 C12.8453125 6.1446875 12.8453125 6.1446875 12.6875 7.3125 C11.75866958 12.29440864 10.37883557 17.12637995 9 22 C8.01 22 7.02 22 6 22 C5.17977388 19.64828157 4.3687346 17.2940149 3.5625 14.9375 C3.21735352 13.95233398 3.21735352 13.95233398 2.86523438 12.94726562 C1.39565872 8.62373145 0.51353789 4.53920274 0 0 Z " fill="#D5E5DB" transform="translate(253,111)"/>
<path d="M0 0 C0.33 0 0.66 0 1 0 C1 2.64 1 5.28 1 8 C1.66 8 2.32 8 3 8 C3.33 6.68 3.66 5.36 4 4 C4 5.98 4 7.96 4 10 C10.93 10 17.86 10 25 10 C25 10.33 25 10.66 25 11 C18.07 11 11.14 11 4 11 C4 11.66 4 12.32 4 13 C3.01 13.495 3.01 13.495 2 14 C1.5316735 16.58605332 1.5316735 16.58605332 1.375 19.5625 C1.30023438 20.57441406 1.22546875 21.58632812 1.1484375 22.62890625 C1.09945312 23.41136719 1.05046875 24.19382813 1 25 C0.67 25 0.34 25 0 25 C0 21.7 0 18.4 0 15 C-5.61 15 -11.22 15 -17 15 C-17 13.35 -17 11.7 -17 10 C-11.39 10 -5.78 10 0 10 C0 6.7 0 3.4 0 0 Z " fill="#BBD4C5" transform="translate(133,123)"/>
<path d="M0 0 C11.27272727 0 11.27272727 0 16 4 C17 5 17 5 17.25 8.25 C16.98438919 12.23416222 16.52486104 13.95275392 14 17 C10.06493066 19.29545711 6.47994538 19.17568413 2 19 C2 22.96 2 26.92 2 31 C1.34 31 0.68 31 0 31 C0 20.77 0 10.54 0 0 Z M2 2 C2 6.95 2 11.9 2 17 C8.15452139 17.45589311 8.15452139 17.45589311 12.4375 14.875 C15.23840674 12.23666315 15.23840674 12.23666315 15.5625 8.875 C14.95631393 5.77671567 14.54552187 4.79129317 12 3 C8.4202491 1.63106761 8.4202491 1.63106761 2 2 Z " fill="#E3EFE7" transform="translate(210,102)"/>
<path d="M0 0 C3.49923295 0.03343216 4.64698122 0.25025949 7.75 2.125 C10.86019533 5.52677614 11.09354642 8.716685 11.03515625 13.24609375 C10.56323556 16.66590256 8.95577598 18.7390947 6.75 21.3125 C3.55120571 23.65828248 0.64347111 23.78925156 -3.25 23.3125 C-6.75602851 21.08139095 -8.67004861 19.11969563 -10.25 15.3125 C-10.77218363 12.23986159 -10.8081414 9.38227772 -10.25 6.3125 C-7.8125 3.3125 -7.8125 3.3125 -5.25 1.3125 C-3.69014791 -0.24735209 -2.16093902 0.06797656 0 0 Z M-6.00390625 3.45703125 C-8.68654651 7.45155829 -7.91197422 12.73542111 -7.25 17.3125 C-5.41412971 20.33298324 -5.41412971 20.33298324 -2.25 21.3125 C1.33295911 21.25072484 3.70217958 21.08090164 6.625 18.9375 C9.18003523 15.24689356 8.97811238 11.64663521 8.75 7.3125 C7.73263229 4.55107335 7.38829259 3.63164629 4.75 2.3125 C2.64145964 2.0772268 2.64145964 2.0772268 0.3125 2.0625 C-0.86119141 2.02382812 -0.86119141 2.02382812 -2.05859375 1.984375 C-4.28592385 2.16236427 -4.28592385 2.16236427 -6.00390625 3.45703125 Z " fill="#D3E4D9" transform="translate(239.25,110.6875)"/>
<path d="M0 0 C3.25232954 2.64370647 4.2242314 5.74925374 5.625 9.625 C6.81216621 13.60144743 6.81216621 13.60144743 9 17 C11.31 11.39 13.62 5.78 16 0 C16.66 0 17.32 0 18 0 C16.97201464 6.0699431 14.48662175 11.47182612 12.125 17.125 C11.67769531 18.22199219 11.23039062 19.31898438 10.76953125 20.44921875 C10.33253906 21.49980469 9.89554687 22.55039063 9.4453125 23.6328125 C8.85000732 25.06971436 8.85000732 25.06971436 8.24267578 26.53564453 C7.04626632 28.90824908 6.08962194 30.37773147 4 32 C1.3125 32.1875 1.3125 32.1875 -1 32 C-1 31.34 -1 30.68 -1 30 C-0.21625 29.938125 0.5675 29.87625 1.375 29.8125 C4.14062254 29.25890318 4.14062254 29.25890318 5.375 26.9375 C6.98067837 19.39081167 4.15559407 13.50741818 1.05859375 6.734375 C0 4 0 4 0 0 Z " fill="#D8E8DF" transform="translate(427,111)"/>
<path d="M0 0 C0.66 0 1.32 0 2 0 C2.06058594 1.12019531 2.12117188 2.24039063 2.18359375 3.39453125 C2.26801424 4.86719984 2.35266149 6.33985544 2.4375 7.8125 C2.47681641 8.55048828 2.51613281 9.28847656 2.55664062 10.04882812 C2.74381035 13.23071342 2.98720793 15.96162378 4 19 C8.13399234 20.06966631 8.13399234 20.06966631 12.15625 19.0625 C15.03352628 15.84385196 14.67452022 12.49476618 14.75 8.3125 C14.79447266 7.11657227 14.79447266 7.11657227 14.83984375 5.89648438 C14.91044082 3.93153251 14.95749708 1.96576023 15 0 C15.66 0 16.32 0 17 0 C17 7.26 17 14.52 17 22 C16.34 22 15.68 22 15 22 C14.67 21.34 14.34 20.68 14 20 C13.484375 20.515625 12.96875 21.03125 12.4375 21.5625 C10 23 10 23 6.4375 23.0625 C3 22 3 22 1.296875 19.45703125 C-0.26132865 15.30338599 -0.34191736 12.00411806 -0.1875 7.625 C-0.17396484 6.88894531 -0.16042969 6.15289062 -0.14648438 5.39453125 C-0.11144869 3.59603257 -0.05765288 1.79791578 0 0 Z " fill="#E3EEE7" transform="translate(366,111)"/>
<path d="M0 0 C0.66 1.32 1.32 2.64 2 4 C-3.08086796 4.84681133 -7.84828377 5.09038099 -13 5 C-8.545 5.99 -8.545 5.99 -4 7 C-4 7.99 -4 8.98 -4 10 C-8.0680976 10.95719944 -10.17899254 11.43670609 -13.9375 9.4375 C-16 7 -16 7 -16 1 C-8.08 0.505 -8.08 0.505 0 0 Z " fill="#28754C" transform="translate(302,121)"/>
<path d="M0 0 C0.66 0 1.32 0 2 0 C2.75071906 2.76659413 3.47593668 5.53583177 4.1875 8.3125 C4.51137695 9.49102539 4.51137695 9.49102539 4.84179688 10.69335938 C5.03193359 11.45068359 5.22207031 12.20800781 5.41796875 12.98828125 C5.60125732 13.68477783 5.7845459 14.38127441 5.97338867 15.09887695 C5.98217041 15.72624756 5.99095215 16.35361816 6 17 C5.01 17.99 4.02 18.98 3 20 C0.69 18.35 -1.62 16.7 -4 15 C-3.79503906 14.25234375 -3.59007812 13.5046875 -3.37890625 12.734375 C-3.10949219 11.74953125 -2.84007812 10.7646875 -2.5625 9.75 C-2.29566406 8.77546875 -2.02882813 7.8009375 -1.75390625 6.796875 C-1.14455416 4.53627347 -0.55761745 2.27377991 0 0 Z " fill="#257548" transform="translate(266,116)"/>
<path d="M0 0 C3.68118821 2.32940762 7.02902792 5.05805583 9 9 C9.12240135 10.76770327 9.17551153 12.54060462 9.1875 14.3125 C9.20167969 15.25738281 9.21585937 16.20226562 9.23046875 17.17578125 C8.98824335 20.14406882 8.24026607 22.30867165 7 25 C6.34 25 5.68 25 5 25 C5.165 24.360625 5.33 23.72125 5.5 23.0625 C6.56789202 16.52166139 6.98904327 10.63968186 3 5 C-0.89506726 2.55167201 -5.51288181 2.23700824 -10 3 C-12.8900216 4.74409751 -12.8900216 4.74409751 -15 7 C-15.66 7.66 -16.32 8.32 -17 9 C-17 7.68 -17 6.36 -17 5 C-11.91408071 0.13520764 -7.00269455 -1.76703507 0 0 Z " fill="#E3EFE8" transform="translate(352,102)"/>
<path d="M0 0 C4.54805635 -0.17835515 7.8794254 0.00214565 12 2 C12 3.65 12 5.3 12 7 C7.8794254 8.99785435 4.54805635 9.17835515 0 9 C0 6.03 0 3.06 0 0 Z " fill="#478866" transform="translate(57,102)"/>
<path d="M0 0 C0.70125 0.00515625 1.4025 0.0103125 2.125 0.015625 C2.82625 0.01046875 3.5275 0.0053125 4.25 0 C6.125 0.265625 6.125 0.265625 8.125 2.265625 C8.125 3.915625 8.125 5.565625 8.125 7.265625 C3.835 7.265625 -0.455 7.265625 -4.875 7.265625 C-3.52165523 0.49890116 -3.52165523 0.49890116 0 0 Z " fill="#257449" transform="translate(290.875,112.734375)"/>
<path d="M0 0 C0.70125 0.00515625 1.4025 0.0103125 2.125 0.015625 C2.82625 0.01046875 3.5275 0.0053125 4.25 0 C6.125 0.265625 6.125 0.265625 8.125 2.265625 C8.125 3.915625 8.125 5.565625 8.125 7.265625 C3.835 7.265625 -0.455 7.265625 -4.875 7.265625 C-3.52165523 0.49890116 -3.52165523 0.49890116 0 0 Z " fill="#247348" transform="translate(395.875,112.734375)"/>
<path d="M0 0 C0.66 0.33 1.32 0.66 2 1 C0.35 6.28 -1.3 11.56 -3 17 C-3.66 17 -4.32 17 -5 17 C-6.59138085 12.82262526 -7.21278058 9.46839215 -7 5 C-6.360625 4.71125 -5.72125 4.4225 -5.0625 4.125 C-2.84793921 3.17176549 -2.84793921 3.17176549 -2 1 C-2 1.66 -2 2.32 -2 3 C-1.34 3 -0.68 3 0 3 C0 2.01 0 1.02 0 0 Z " fill="#29764B" transform="translate(277,111)"/>
<path d="M0 0 C3.12498063 -0.02895976 6.2499269 -0.04678483 9.375 -0.0625 C10.70917969 -0.07506836 10.70917969 -0.07506836 12.0703125 -0.08789062 C13.34648437 -0.09272461 13.34648437 -0.09272461 14.6484375 -0.09765625 C15.43395996 -0.10289307 16.21948242 -0.10812988 17.02880859 -0.11352539 C19 0 19 0 21 1 C21.4140625 3.72265625 21.4140625 3.72265625 21.625 7.0625 C21.69976562 8.16722656 21.77453125 9.27195312 21.8515625 10.41015625 C21.90054688 11.26480469 21.94953125 12.11945313 22 13 C20 13 18 13 16 13 C16.33 9.04 16.66 5.08 17 1 C11.39 1 5.78 1 0 1 C0 0.67 0 0.34 0 0 Z " fill="#D8E7DE" transform="translate(116,107)"/>
<path d="M0 0 C0.66 0 1.32 0 2 0 C2.33 0.66 2.66 1.32 3 2 C3.99 1.34 4.98 0.68 6 0 C8.6875 -0.125 8.6875 -0.125 11 0 C11 0.66 11 1.32 11 2 C10.05125 2.268125 9.1025 2.53625 8.125 2.8125 C4.74732727 3.74986588 4.74732727 3.74986588 3 7 C2.70008931 9.58885171 2.49134775 12.09149082 2.375 14.6875 C2.33632813 15.38939453 2.29765625 16.09128906 2.2578125 16.81445312 C2.1637666 18.54254655 2.0808032 20.27123675 2 22 C1.34 22 0.68 22 0 22 C0 14.74 0 7.48 0 0 Z " fill="#DEEBE3" transform="translate(412,111)"/>
<path d="M0 0 C0.66 0 1.32 0 2 0 C2.33 0.66 2.66 1.32 3 2 C3.66 1.34 4.32 0.68 5 0 C8.125 -0.125 8.125 -0.125 11 0 C11 0.66 11 1.32 11 2 C9.576875 2.0928125 9.576875 2.0928125 8.125 2.1875 C6.578125 2.5896875 6.578125 2.5896875 5 3 C2.81250734 6.96113536 2.62505851 10.85312324 2.375 15.3125 C2.30023438 16.56675781 2.22546875 17.82101563 2.1484375 19.11328125 C2.09945313 20.06589844 2.05046875 21.01851562 2 22 C1.34 22 0.68 22 0 22 C0 14.74 0 7.48 0 0 Z " fill="#E8F1EB" transform="translate(307,111)"/>
<path d="M0 0 C-0.763125 0.268125 -1.52625 0.53625 -2.3125 0.8125 C-5.00498475 1.78913749 -5.00498475 1.78913749 -6.5 3.625 C-8 5 -8 5 -10.5625 5.3125 C-13 5 -13 5 -15 3 C-16.32 3 -17.64 3 -19 3 C-19 7.95 -19 12.9 -19 18 C-19.33 18 -19.66 18 -20 18 C-20 12.72 -20 7.44 -20 2 C-17.4425 1.484375 -14.885 0.96875 -12.25 0.4375 C-11.45110352 0.2717749 -10.65220703 0.1060498 -9.82910156 -0.06469727 C-6.18753693 -0.7723716 -3.53608369 -1.07664805 0 0 Z " fill="#357D57" transform="translate(64,63)"/>
<path d="M0 0 C2.95064148 -0.2208564 5.68368231 -0.28060989 8.625 -0.1875 C9.42679688 -0.17396484 10.22859375 -0.16042969 11.0546875 -0.14648438 C13.03674378 -0.11109051 15.01845551 -0.05728234 17 0 C16.67 0.99 16.34 1.98 16 3 C10.06 3 4.12 3 -2 3 C-1.34 2.01 -0.68 1.02 0 0 Z " fill="#FDFCFE" transform="translate(139,119)"/>
<path d="M0 0 C0.66 0 1.32 0 2 0 C2.06058594 1.12019531 2.12117188 2.24039063 2.18359375 3.39453125 C2.26801424 4.86719984 2.35266149 6.33985544 2.4375 7.8125 C2.47681641 8.55048828 2.51613281 9.28847656 2.55664062 10.04882812 C2.74381035 13.23071342 2.98720793 15.96162378 4 19 C4.66 19.33 5.32 19.66 6 20 C6 20.66 6 21.32 6 22 C7.32 22.33 8.64 22.66 10 23 C6.6875 22.875 6.6875 22.875 3 22 C-0.2433608 17.2234141 -0.38291702 13.16682635 -0.1875 7.625 C-0.17396484 6.88894531 -0.16042969 6.15289062 -0.14648438 5.39453125 C-0.11144869 3.59603257 -0.05765288 1.79791578 0 0 Z " fill="#D1E2D8" transform="translate(366,111)"/>
<path d="M0 0 C5.61 0 11.22 0 17 0 C17 0.99 17 1.98 17 3 C14.54159395 3.02691685 12.08348118 3.04679802 9.625 3.0625 C8.92632812 3.07087891 8.22765625 3.07925781 7.5078125 3.08789062 C2.2265625 3.11328125 2.2265625 3.11328125 0 2 C0 1.34 0 0.68 0 0 Z " fill="#FEFDFD" transform="translate(137,134)"/>
<path d="M0 0 C1.3303125 0.4021875 1.3303125 0.4021875 2.6875 0.8125 C2.6875 1.1425 2.6875 1.4725 2.6875 1.8125 C1.57375 2.039375 0.46 2.26625 -0.6875 2.5 C-1.88375 2.933125 -3.08 3.36625 -4.3125 3.8125 C-4.9725 5.4625 -5.6325 7.1125 -6.3125 8.8125 C-2.0225 8.8125 2.2675 8.8125 6.6875 8.8125 C7.0175 7.8225 7.3475 6.8325 7.6875 5.8125 C7.6875 7.1325 7.6875 8.4525 7.6875 9.8125 C2.7375 9.8125 -2.2125 9.8125 -7.3125 9.8125 C-7.9725 11.1325 -8.6325 12.4525 -9.3125 13.8125 C-9.19705893 8.9954589 -8.94208576 5.71190822 -6.125 1.6875 C-3.3125 -0.1875 -3.3125 -0.1875 0 0 Z " fill="#B7D1C3" transform="translate(292.3125,111.1875)"/>
<path d="M0 0 C4.95 0 9.9 0 15 0 C15.33 0.99 15.66 1.98 16 3 C10.06 3 4.12 3 -2 3 C-1.34 2.67 -0.68 2.34 0 2 C0 1.34 0 0.68 0 0 Z " fill="#1B7142" transform="translate(139,84)"/>
<path d="M0 0 C5.28 0 10.56 0 16 0 C16 0.99 16 1.98 16 3 C10.72 3 5.44 3 0 3 C0 2.01 0 1.02 0 0 Z " fill="#FCFDFC" transform="translate(116,134)"/>
<path d="M0 0 C0.33 0 0.66 0 1 0 C1.07347656 1.42892578 1.07347656 1.42892578 1.1484375 2.88671875 C1.22320312 4.14097656 1.29796875 5.39523438 1.375 6.6875 C1.44460938 7.92886719 1.51421875 9.17023438 1.5859375 10.44921875 C1.96422094 13.69317772 2.61979976 16.06567185 4 19 C2.125 18.375 2.125 18.375 0 17 C-2.24463937 12.28625732 -2.33515933 8.11117983 -2 3 C-1.34 2.01 -0.68 1.02 0 0 Z " fill="#CDDFD5" transform="translate(334,110)"/>
<path d="M0 0 C0.33 0 0.66 0 1 0 C1.268125 1.11375 1.53625 2.2275 1.8125 3.375 C2.65809019 7.21840951 2.65809019 7.21840951 6 9 C8.29714187 9.02639829 8.29714187 9.02639829 10.6875 8.625 C11.49574219 8.51414063 12.30398438 8.40328125 13.13671875 8.2890625 C13.75160156 8.19367188 14.36648438 8.09828125 15 8 C14.67 8.99 14.34 9.98 14 11 C6.08330275 12.58678899 6.08330275 12.58678899 2 10.375 C-0.19430759 7.76925974 -0.82686785 6.37607687 -1 3 C-0.67 2.01 -0.34 1.02 0 0 Z " fill="#D5E6DD" transform="translate(285,122)"/>
<path d="M0 0 C0.66 0 1.32 0 2 0 C1.81824219 0.58265625 1.63648438 1.1653125 1.44921875 1.765625 C-0.60235511 8.45691206 -2.35228894 15.19880965 -4 22 C-4.33 21.01 -4.66 20.02 -5 19 C-5.66 19 -6.32 19 -7 19 C-7 18.34 -7 17.68 -7 17 C-6.34 17 -5.68 17 -5 17 C-4.72285156 15.85660156 -4.44570313 14.71320313 -4.16015625 13.53515625 C-3.79445622 12.04422535 -3.42856071 10.55334239 -3.0625 9.0625 C-2.88009766 8.30775391 -2.69769531 7.55300781 -2.50976562 6.77539062 C-1.11328125 1.11328125 -1.11328125 1.11328125 0 0 Z " fill="#C9DED2" transform="translate(279,111)"/>
<path d="M0 0 C1.134375 0.020625 2.26875 0.04125 3.4375 0.0625 C3.4375 0.3925 3.4375 0.7225 3.4375 1.0625 C2.344375 1.289375 1.25125 1.51625 0.125 1.75 C-3.57586724 2.73172314 -3.57586724 2.73172314 -5.4375 5.1875 C-6.87779427 8.86825201 -7.22885639 12.12550538 -7.5625 16.0625 C-8.2225 15.7325 -8.8825 15.4025 -9.5625 15.0625 C-10.34984859 7.03154441 -10.34984859 7.03154441 -7.125 3.0625 C-6.279375 2.4025 -5.43375 1.7425 -4.5625 1.0625 C-3.5625 0.0625 -3.5625 0.0625 0 0 Z " fill="#E8F1EC" transform="translate(238.5625,110.9375)"/>
<path d="M0 0 C0.33 0 0.66 0 1 0 C1.34649648 5.77494139 1.29726646 9.99303982 -2 15 C-2.99 15.66 -3.98 16.32 -5 17 C-4.67 15.68 -4.34 14.36 -4 13 C-3.34 13 -2.68 13 -2 13 C-2 12.01 -2 11.02 -2 10 C-2.99 10 -3.98 10 -5 10 C-4.67 8.68 -4.34 7.36 -4 6 C-2.68 6 -1.36 6 0 6 C0 4.02 0 2.04 0 0 Z " fill="#307A52" transform="translate(358,113)"/>
<path d="M0 0 C2.31 0 4.62 0 7 0 C6.34 2.31 5.68 4.62 5 7 C3.35 7 1.7 7 0 7 C0 4.69 0 2.38 0 0 Z " fill="#1E7447" transform="translate(58,103)"/>
<path d="M0 0 C2.27024968 -0.08097324 4.54132075 -0.13917704 6.8125 -0.1875 C8.07707031 -0.22230469 9.34164062 -0.25710937 10.64453125 -0.29296875 C14 0 14 0 17 3 C11.39 3 5.78 3 0 3 C0 2.01 0 1.02 0 0 Z " fill="#2E794F" transform="translate(116,100)"/>
<path d="M0 0 C2.31 0 4.62 0 7 0 C6.01 0.33 5.02 0.66 4 1 C4 1.66 4 2.32 4 3 C4.99 3.33 5.98 3.66 7 4 C2.25 7 2.25 7 0 7 C0 4.69 0 2.38 0 0 Z " fill="#347E55" transform="translate(212,104)"/>
<path d="M0 0 C0.99 0.495 0.99 0.495 2 1 C2.4140625 3.06640625 2.4140625 3.06640625 2.625 5.5625 C2.69976562 6.38878906 2.77453125 7.21507813 2.8515625 8.06640625 C2.92503906 9.02353516 2.92503906 9.02353516 3 10 C4.98 10 6.96 10 9 10 C8.67 10.99 8.34 11.98 8 13 C6.68 13 5.36 13 4 13 C4 12.34 4 11.68 4 11 C3.34 11 2.68 11 2 11 C0.80712589 7.12315913 0 4.08378077 0 0 Z " fill="#307E55" transform="translate(48,117)"/>
<path d="M0 0 C0.66 0 1.32 0 2 0 C2.66 2.97 3.32 5.94 4 9 C2.35 9 0.7 9 -1 9 C-2.25541557 5.23375329 -1.37061958 3.62811066 0 0 Z " fill="#337C55" transform="translate(266,116)"/>
<path d="M0 0 C0.66 0 1.32 0 2 0 C5.62870159 9.41002278 5.62870159 9.41002278 4 14 C3.67 14 3.34 14 3 14 C2.49528803 12.23050388 1.99639315 10.45934777 1.5 8.6875 C1.2215625 7.70136719 0.943125 6.71523437 0.65625 5.69921875 C0 3 0 3 0 0 Z " fill="#C9DDD1" transform="translate(253,111)"/>
<path d="M0 0 C1.625 1.625 1.625 1.625 3 4 C2.1875 7.25 2.1875 7.25 1 10 C0.01 9.34 -0.98 8.68 -2 8 C-2.1875 4.875 -2.1875 4.875 -2 2 C-1.34 2 -0.68 2 0 2 C0 1.34 0 0.68 0 0 Z " fill="#1B683E" transform="translate(114,76)"/>
<path d="M0 0 C0.99 1.32 1.98 2.64 3 4 C3.66 3.34 4.32 2.68 5 2 C5.33 2.99 5.66 3.98 6 5 C6.66 5.33 7.32 5.66 8 6 C6.35 6.66 4.7 7.32 3 8 C3 7.34 3 6.68 3 6 C1.68 5.67 0.36 5.34 -1 5 C-0.67 3.35 -0.34 1.7 0 0 Z " fill="#317550" transform="translate(105,120)"/>
<path d="M0 0 C0.33 0 0.66 0 1 0 C1.17835515 4.54805635 0.99785435 7.8794254 -1 12 C-1.66 12 -2.32 12 -3 12 C-2.69230293 10.18667846 -2.37870936 8.37435655 -2.0625 6.5625 C-1.80146484 5.04849609 -1.80146484 5.04849609 -1.53515625 3.50390625 C-1 1 -1 1 0 0 Z " fill="#EBF4EF" transform="translate(360,115)"/>
<path d="M0 0 C0.33 0 0.66 0 1 0 C1.02578125 0.60328125 1.0515625 1.2065625 1.078125 1.828125 C1.40331983 7.10535339 1.40331983 7.10535339 4.0625 11.5625 C5.0215625 12.2740625 5.0215625 12.2740625 6 13 C5.01 13.33 4.02 13.66 3 14 C0.9375 12.0625 0.9375 12.0625 -1 9 C-1.05666696 5.91937821 -0.60438257 3.01534349 0 0 Z " fill="#C7DBCE" transform="translate(231,119)"/>
<path d="M0 0 C-0.33 0.99 -0.66 1.98 -1 3 C-5.455 3.495 -5.455 3.495 -10 4 C-10.33 3.34 -10.66 2.68 -11 2 C-9.5422647 1.664061 -8.08378894 1.33133376 -6.625 1 C-5.40683594 0.7215625 -5.40683594 0.7215625 -4.1640625 0.4375 C-2 0 -2 0 0 0 Z " fill="#D8E8DF" transform="translate(246,130)"/>
<path d="M0 0 C1.3125 2.125 1.3125 2.125 2 4 C1.01 4.495 1.01 4.495 0 5 C-0.33 3.68 -0.66 2.36 -1 1 C-3.97 0.67 -6.94 0.34 -10 0 C-10 -0.33 -10 -0.66 -10 -1 C-5.9846258 -2.14724977 -3.66532314 -2.08031854 0 0 Z " fill="#CAE1D3" transform="translate(247,113)"/>
<path d="M0 0 C0.99 0.33 1.98 0.66 3 1 C3.625 3.875 3.625 3.875 4 7 C3.34 7.66 2.68 8.32 2 9 C1.34 6.03 0.68 3.06 0 0 Z " fill="#2A754B" transform="translate(258,120)"/>
<path d="M0 0 C0.99 0.33 1.98 0.66 3 1 C2.67 2.32 2.34 3.64 2 5 C1.34 5 0.68 5 0 5 C-0.33 5.66 -0.66 6.32 -1 7 C-1 6.34 -1 5.68 -1 5 C-1.66 4.67 -2.32 4.34 -3 4 C-2.67 3.34 -2.34 2.68 -2 2 C-1.34 2 -0.68 2 0 2 C0 1.34 0 0.68 0 0 Z " fill="#2C784E" transform="translate(228,112)"/>
<path d="M0 0 C0 0.66 0 1.32 0 2 C-0.928125 2.268125 -1.85625 2.53625 -2.8125 2.8125 C-5.76240366 3.91148371 -7.05615186 4.62418561 -9 7 C-8.6875 4.625 -8.6875 4.625 -8 2 C-4.77208445 -0.1519437 -3.71599191 -0.20086443 0 0 Z " fill="#C7DCCF" transform="translate(423,111)"/>
<path d="M0 0 C0.66 0.66 1.32 1.32 2 2 C1.54545455 7.45454545 1.54545455 7.45454545 -1 10 C-1.33 8.35 -1.66 6.7 -2 5 C-1.34 5 -0.68 5 0 5 C-0.2784375 4.0409375 -0.2784375 4.0409375 -0.5625 3.0625 C-0.7790625 2.0415625 -0.7790625 2.0415625 -1 1 C-0.67 0.67 -0.34 0.34 0 0 Z " fill="#176A3D" transform="translate(114,155)"/>
<path d="M0 0 C0.66 0 1.32 0 2 0 C2.66 3.3 3.32 6.6 4 10 C3.34 10 2.68 10 2 10 C0.68373308 6.38026598 0 3.90432869 0 0 Z " fill="#E4F0E9" transform="translate(257,123)"/>
<path d="M0 0 C0.33 0 0.66 0 1 0 C1.33 2.64 1.66 5.28 2 8 C2.66 7.34 3.32 6.68 4 6 C3.67 7.65 3.34 9.3 3 11 C2.01 11.33 1.02 11.66 0 12 C0 8.04 0 4.08 0 0 Z " fill="#DBE6DF" transform="translate(133,78)"/>
<path d="M0 0 C1.32 0 2.64 0 4 0 C3.67 2.31 3.34 4.62 3 7 C1.68 6.01 0.36 5.02 -1 4 C-0.67 2.68 -0.34 1.36 0 0 Z " fill="#317951" transform="translate(435,135)"/>
<path d="M0 0 C0.33 0.99 0.66 1.98 1 3 C3.01508358 3.73323796 3.01508358 3.73323796 5 4 C5 4.66 5 5.32 5 6 C3.35 6.33 1.7 6.66 0 7 C-1.33332095 4.3333581 -0.67102033 2.83319697 0 0 Z " fill="#2B774F" transform="translate(80,122)"/>
<path d="M0 0 C0.66 0.33 1.32 0.66 2 1 C2 2.65 2 4.3 2 6 C0.68 5.67 -0.64 5.34 -2 5 C-2 4.01 -2 3.02 -2 2 C-1.34 2 -0.68 2 0 2 C0 1.34 0 0.68 0 0 Z " fill="#2C794F" transform="translate(387,118)"/>
<path d="M0 0 C0 0.33 0 0.66 0 1 C-1.0725 1.28875 -2.145 1.5775 -3.25 1.875 C-6.09400364 2.72820109 -8.43508983 3.5636503 -11 5 C-9.07089686 -0.78730941 -5.38986894 -0.20339128 0 0 Z " fill="#E1EDE6" transform="translate(242,111)"/>
<path d="M0 0 C0.33 0.99 0.66 1.98 1 3 C1.66 3 2.32 3 3 3 C2.67 4.65 2.34 6.3 2 8 C1.34 8 0.68 8 0 8 C0 5.36 0 2.72 0 0 Z " fill="#25774B" transform="translate(167,152)"/>
<path d="M0 0 C1.9375 0.375 1.9375 0.375 4 1 C4.33 1.66 4.66 2.32 5 3 C4.67 3.66 4.34 4.32 4 5 C3.01 5 2.02 5 1 5 C0.67 3.35 0.34 1.7 0 0 Z " fill="#29764C" transform="translate(386,112)"/>
<path d="M0 0 C1.98 0.99 1.98 0.99 4 2 C3.34 3.65 2.68 5.3 2 7 C1.34 6.67 0.68 6.34 0 6 C0 4.02 0 2.04 0 0 Z " fill="#DFEDE6" transform="translate(96,97)"/>
</svg>
