<svg xmlns="http://www.w3.org/2000/svg" width="878" height="462" viewBox="0 0 878 462" version="1.1"><path d="M 219 96.367 C 206.600 99.072, 195.790 108.254, 189.607 121.333 C 184.901 131.287, 183.556 137.815, 183.700 150 C 183.927 169.179, 188.895 182.909, 199.471 193.588 C 206.909 201.097, 213.828 204.062, 225.531 204.753 C 253.525 206.407, 272.187 186.547, 273.694 153.500 C 275.079 123.126, 260.182 99.831, 236.966 96.064 C 229.039 94.778, 226.055 94.828, 219 96.367 M 93.241 150.250 L 93.500 203.500 102.750 203.788 L 112 204.075 112 182.615 L 112 161.156 130.750 160.790 C 147.322 160.467, 150.042 160.175, 154.170 158.282 C 160.543 155.358, 166.626 149.635, 169.813 143.563 C 172.143 139.124, 172.472 137.330, 172.485 129 C 172.502 118.209, 170.779 113.585, 164.165 106.668 C 155.978 98.106, 150.901 97.027, 118.741 97.012 L 92.982 97 93.241 150.250 M 280.375 98.714 C 280.667 99.696, 287.023 123, 294.497 150.500 C 301.972 178, 308.324 201.287, 308.611 202.250 C 309.062 203.756, 310.451 204, 318.589 204 C 327.457 204, 328.099 203.861, 328.952 201.750 C 329.452 200.512, 333.771 183.525, 338.551 164 C 343.330 144.475, 347.574 128.135, 347.982 127.688 C 348.390 127.242, 349.684 130.617, 350.858 135.188 C 358.933 166.638, 369.140 202.472, 370.216 203.155 C 371.815 204.169, 387.085 204.235, 388.648 203.235 C 389.279 202.831, 395.977 179.325, 403.533 151 C 411.089 122.675, 417.483 98.938, 417.743 98.250 C 418.097 97.311, 416.091 97, 409.678 97 L 401.142 97 399.658 102.250 C 398.842 105.138, 394.466 121.900, 389.934 139.500 C 385.403 157.100, 381.402 171.840, 381.043 172.255 C 380.684 172.670, 375.721 155.907, 370.014 135.005 L 359.638 97 349.886 97 C 341.453 97, 340.068 97.237, 339.642 98.750 C 339.371 99.713, 335.235 116.475, 330.450 136 C 325.666 155.525, 321.455 171.829, 321.093 172.232 C 320.732 172.635, 315.950 155.985, 310.468 135.232 L 300.500 97.500 290.171 97.214 C 280.652 96.951, 279.884 97.068, 280.375 98.714 M 431 150.500 L 431 204 465.500 204 L 500 204 500 195.500 L 500 187 475 187 L 450 187 450 172 L 450 157 470.042 157 L 490.084 157 489.792 149.364 L 489.500 141.729 472.500 141.807 C 463.150 141.850, 454.262 141.634, 452.750 141.326 L 450 140.767 450 126.901 L 450 113.035 474.750 112.767 L 499.500 112.500 499.604 106.550 C 499.789 95.992, 503.453 97, 464.883 97 L 431 97 431 150.500 M 517 150.444 L 517 204 526.500 204 L 536 204 536 182 L 536 160 549.750 160.017 L 563.500 160.034 571.623 181.767 L 579.746 203.500 588.364 203.805 C 593.104 203.972, 597.605 203.747, 598.367 203.305 C 599.470 202.663, 598.048 198.239, 591.357 181.500 C 586.740 169.950, 582.705 159.518, 582.390 158.317 C 581.921 156.533, 582.542 155.764, 585.787 154.109 C 591.076 151.411, 597.340 144.133, 598.956 138.809 C 601.002 132.065, 600.532 121.107, 597.937 115.075 C 595.142 108.577, 587.923 101.983, 580.845 99.461 C 576.153 97.789, 571.928 97.516, 546.250 97.223 L 517 96.889 517 150.444 M 659.241 150.168 L 659.500 203.500 680.500 203.774 C 706.905 204.119, 717.282 203.060, 724.157 199.318 C 735.792 192.986, 741.040 178.852, 736.900 165 C 735.034 158.756, 727.740 151.572, 721.360 149.694 L 716.500 148.264 720.500 146.583 C 730.142 142.531, 735.721 132.890, 734.732 121.986 C 734.079 114.774, 731.656 109.612, 726.521 104.487 C 720.145 98.124, 718.003 97.735, 686.741 97.258 L 658.982 96.835 659.241 150.168 M 756 150.545 L 756 204.090 765.250 203.795 L 774.500 203.500 774.759 150.250 L 775.018 97 765.509 97 L 756 97 756 150.545 M 218.900 112.991 C 211.185 117.069, 207.214 124.235, 205.041 138 C 203.589 147.200, 203.756 156.708, 205.516 165.077 C 209.083 182.031, 215.900 189.143, 228.587 189.143 C 234.692 189.143, 239.075 187.332, 243.884 182.822 C 250.734 176.397, 253.580 164.576, 252.726 146.089 C 251.613 121.987, 243.948 110.929, 228.434 111.044 C 224.602 111.073, 221.225 111.762, 218.900 112.991 M 536 127.914 L 536 144 551.788 144 C 566.179 144, 567.969 143.801, 572.015 141.750 C 577.593 138.923, 580.231 134.513, 580.231 128.015 C 580.231 121.851, 577.322 116.884, 572.234 114.361 C 569.171 112.842, 565.580 112.448, 552.250 112.169 L 536 111.828 536 127.914 M 677.223 126.750 L 677.500 141.500 691.520 141.476 C 703.655 141.456, 705.993 141.187, 708.907 139.476 C 716.502 135.018, 718.384 123.142, 712.473 116.972 C 708.553 112.880, 704.578 112.012, 689.723 112.006 L 676.947 112 677.223 126.750 M 112 129.046 L 112 145.272 126.887 144.794 C 143.076 144.274, 146.166 143.351, 150.310 137.791 C 153.228 133.876, 153.672 125.498, 151.198 121 C 147.673 114.589, 144.482 113.544, 127.250 113.160 L 112 112.821 112 129.046 M 677 172 L 677 187 680.750 187.090 C 700.742 187.567, 708.058 187.150, 711.118 185.358 C 715.798 182.617, 718.225 178.766, 718.701 173.324 C 719.269 166.827, 716.729 162.206, 710.964 159.250 C 706.997 157.216, 705.157 157, 691.788 157 L 677 157 677 172 M -0 349.003 L 0 462.002 439.250 461.751 L 878.500 461.500 878.754 348.500 L 879.008 235.500 439.504 235.752 L -0 236.005 -0 349.003 M 0.483 349 C 0.483 411.425, 0.603 436.963, 0.750 405.750 C 0.897 374.538, 0.897 323.463, 0.750 292.250 C 0.603 261.038, 0.483 286.575, 0.483 349 M 175.455 262.455 C 173.012 264.897, 173 265.005, 173 284.955 L 173 305 157.250 305.032 C 146.449 305.054, 141.001 305.446, 139.913 306.282 C 136.433 308.954, 136 311.682, 136 330.934 L 136 350 120.423 350 L 104.846 350 101.923 352.923 L 99 355.846 99 394.973 C 99 436.083, 99.266 438.737, 103.545 440.379 C 104.435 440.720, 126.277 441, 152.082 441 L 199 441 199.006 429.250 C 199.012 418.016, 199.080 417.631, 200.565 420.477 C 201.419 422.115, 202.547 423.720, 203.072 424.045 C 203.598 424.369, 204.119 426.742, 204.231 429.317 L 204.435 434 212.517 434 C 217.621 434, 221.058 433.542, 221.842 432.758 C 222.830 431.770, 223.267 431.815, 223.987 432.979 C 224.484 433.784, 225.253 434.056, 225.696 433.584 C 226.138 433.112, 225.938 432.525, 225.250 432.280 C 223.820 431.769, 223.527 428, 224.917 428 C 225.421 428, 226.070 428.563, 226.359 429.250 C 226.735 430.145, 227.198 430.003, 227.992 428.750 C 228.601 427.788, 229.730 427, 230.500 427 C 231.270 427, 232.359 426.212, 232.920 425.250 C 233.787 423.761, 233.970 423.948, 234.147 426.500 C 234.881 437.115, 235.761 389.491, 235.871 333.200 C 236.008 262.992, 235.969 262.353, 231.455 260.621 C 230.565 260.280, 218.153 260, 203.873 260 L 177.909 260 175.455 262.455 M 282 353.999 L 282 438.133 325.250 437.811 L 368.500 437.489 377.979 434.187 C 389.202 430.277, 395.528 426.802, 403 420.441 C 411.573 413.143, 417.732 405.294, 422.572 395.500 C 429.682 381.113, 431.318 373.431, 431.409 354 C 431.497 335.084, 429.984 327.808, 422.983 313.500 C 412.706 292.496, 398.284 280.040, 376.500 273.353 L 367.500 270.591 324.750 270.228 L 282 269.866 282 353.999 M 482.163 282.734 C 479.972 289.755, 474.570 307.200, 470.158 321.500 C 460.147 353.948, 441.927 412.964, 437.510 427.250 L 434.186 438 455.343 437.995 L 476.500 437.989 481.475 421.495 L 486.450 405 508.975 405.001 L 531.500 405.002 536.087 421.251 L 540.674 437.500 589.658 437.759 L 638.641 438.019 654.002 412.062 C 662.450 397.786, 669.679 386.302, 670.067 386.542 C 670.455 386.781, 677.461 398.442, 685.636 412.453 L 700.500 437.929 730.865 437.965 L 761.230 438 759.693 435.654 C 753.612 426.373, 706.538 351.075, 705.784 349.421 C 704.985 347.670, 708.522 341.447, 728.236 309.921 C 741.107 289.340, 751.971 271.938, 752.378 271.250 C 752.962 270.264, 748.190 270.006, 729.809 270.027 L 706.500 270.054 693.500 291.998 C 686.350 304.067, 680.150 313.838, 679.721 313.711 C 679.293 313.584, 673.383 303.810, 666.588 291.990 L 654.233 270.500 624.116 270.235 C 607.552 270.090, 594 270.213, 594 270.510 C 594 270.806, 605.489 289.039, 619.530 311.028 C 643.344 348.319, 644.974 351.164, 643.780 353.342 C 637.798 364.252, 593.478 433.873, 592.896 433.274 C 592.483 432.848, 580.717 396.050, 566.750 351.500 L 541.355 270.500 513.751 270.234 L 486.146 269.969 482.163 282.734 M 334 353.387 L 334 399 343.684 399 C 355.198 399, 359.890 397.204, 365.742 390.556 C 373.732 381.479, 377.218 370.281, 377.275 353.512 C 377.317 341.067, 375.676 333.263, 371.117 324.232 C 365.126 312.363, 359.125 308.779, 344.250 308.183 L 334 307.773 334 353.387 M 501.930 344.288 L 495.384 367.500 508.329 367.780 C 515.448 367.934, 521.456 367.877, 521.679 367.654 C 522.163 367.171, 509.996 322.818, 509.097 321.788 C 508.756 321.396, 505.530 331.521, 501.930 344.288" stroke="none" fill="#252321" fill-rule="evenodd"/><path d="M 0 118.001 L 0 236.002 439.250 235.751 L 878.500 235.500 878.754 117.750 L 879.008 -0 439.504 -0 L 0 0 0 118.001 M 0.484 118.500 C 0.484 183.400, 0.604 209.803, 0.750 177.173 C 0.896 144.543, 0.896 91.443, 0.750 59.173 C 0.603 26.903, 0.484 53.600, 0.484 118.500 M 219 96.367 C 206.600 99.072, 195.790 108.254, 189.607 121.333 C 184.901 131.287, 183.556 137.815, 183.700 150 C 183.927 169.179, 188.895 182.909, 199.471 193.588 C 206.909 201.097, 213.828 204.062, 225.531 204.753 C 253.525 206.407, 272.187 186.547, 273.694 153.500 C 275.079 123.126, 260.182 99.831, 236.966 96.064 C 229.039 94.778, 226.055 94.828, 219 96.367 M 93.241 150.250 L 93.500 203.500 102.750 203.788 L 112 204.075 112 182.615 L 112 161.156 130.750 160.790 C 147.322 160.467, 150.042 160.175, 154.170 158.282 C 160.543 155.358, 166.626 149.635, 169.813 143.563 C 172.143 139.124, 172.472 137.330, 172.485 129 C 172.502 118.209, 170.779 113.585, 164.165 106.668 C 155.978 98.106, 150.901 97.027, 118.741 97.012 L 92.982 97 93.241 150.250 M 280.375 98.714 C 280.667 99.696, 287.023 123, 294.497 150.500 C 301.972 178, 308.324 201.287, 308.611 202.250 C 309.062 203.756, 310.451 204, 318.589 204 C 327.457 204, 328.099 203.861, 328.952 201.750 C 329.452 200.512, 333.771 183.525, 338.551 164 C 343.330 144.475, 347.574 128.135, 347.982 127.688 C 348.390 127.242, 349.684 130.617, 350.858 135.188 C 358.933 166.638, 369.140 202.472, 370.216 203.155 C 371.815 204.169, 387.085 204.235, 388.648 203.235 C 389.279 202.831, 395.977 179.325, 403.533 151 C 411.089 122.675, 417.483 98.938, 417.743 98.250 C 418.097 97.311, 416.091 97, 409.678 97 L 401.142 97 399.658 102.250 C 398.842 105.138, 394.466 121.900, 389.934 139.500 C 385.403 157.100, 381.402 171.840, 381.043 172.255 C 380.684 172.670, 375.721 155.907, 370.014 135.005 L 359.638 97 349.886 97 C 341.453 97, 340.068 97.237, 339.642 98.750 C 339.371 99.713, 335.235 116.475, 330.450 136 C 325.666 155.525, 321.455 171.829, 321.093 172.232 C 320.732 172.635, 315.950 155.985, 310.468 135.232 L 300.500 97.500 290.171 97.214 C 280.652 96.951, 279.884 97.068, 280.375 98.714 M 431 150.500 L 431 204 465.500 204 L 500 204 500 195.500 L 500 187 475 187 L 450 187 450 172 L 450 157 470.042 157 L 490.084 157 489.792 149.364 L 489.500 141.729 472.500 141.807 C 463.150 141.850, 454.262 141.634, 452.750 141.326 L 450 140.767 450 126.901 L 450 113.035 474.750 112.767 L 499.500 112.500 499.604 106.550 C 499.789 95.992, 503.453 97, 464.883 97 L 431 97 431 150.500 M 517 150.444 L 517 204 526.500 204 L 536 204 536 182 L 536 160 549.750 160.017 L 563.500 160.034 571.623 181.767 L 579.746 203.500 588.364 203.805 C 593.104 203.972, 597.605 203.747, 598.367 203.305 C 599.470 202.663, 598.048 198.239, 591.357 181.500 C 586.740 169.950, 582.705 159.518, 582.390 158.317 C 581.921 156.533, 582.542 155.764, 585.787 154.109 C 591.076 151.411, 597.340 144.133, 598.956 138.809 C 601.002 132.065, 600.532 121.107, 597.937 115.075 C 595.142 108.577, 587.923 101.983, 580.845 99.461 C 576.153 97.789, 571.928 97.516, 546.250 97.223 L 517 96.889 517 150.444 M 659.241 150.168 L 659.500 203.500 680.500 203.774 C 706.905 204.119, 717.282 203.060, 724.157 199.318 C 735.792 192.986, 741.040 178.852, 736.900 165 C 735.034 158.756, 727.740 151.572, 721.360 149.694 L 716.500 148.264 720.500 146.583 C 730.142 142.531, 735.721 132.890, 734.732 121.986 C 734.079 114.774, 731.656 109.612, 726.521 104.487 C 720.145 98.124, 718.003 97.735, 686.741 97.258 L 658.982 96.835 659.241 150.168 M 756 150.545 L 756 204.090 765.250 203.795 L 774.500 203.500 774.759 150.250 L 775.018 97 765.509 97 L 756 97 756 150.545 M 218.900 112.991 C 211.185 117.069, 207.214 124.235, 205.041 138 C 203.589 147.200, 203.756 156.708, 205.516 165.077 C 209.083 182.031, 215.900 189.143, 228.587 189.143 C 234.692 189.143, 239.075 187.332, 243.884 182.822 C 250.734 176.397, 253.580 164.576, 252.726 146.089 C 251.613 121.987, 243.948 110.929, 228.434 111.044 C 224.602 111.073, 221.225 111.762, 218.900 112.991 M 536 127.914 L 536 144 551.788 144 C 566.179 144, 567.969 143.801, 572.015 141.750 C 577.593 138.923, 580.231 134.513, 580.231 128.015 C 580.231 121.851, 577.322 116.884, 572.234 114.361 C 569.171 112.842, 565.580 112.448, 552.250 112.169 L 536 111.828 536 127.914 M 677.223 126.750 L 677.500 141.500 691.520 141.476 C 703.655 141.456, 705.993 141.187, 708.907 139.476 C 716.502 135.018, 718.384 123.142, 712.473 116.972 C 708.553 112.880, 704.578 112.012, 689.723 112.006 L 676.947 112 677.223 126.750 M 112 129.046 L 112 145.272 126.887 144.794 C 143.076 144.274, 146.166 143.351, 150.310 137.791 C 153.228 133.876, 153.672 125.498, 151.198 121 C 147.673 114.589, 144.482 113.544, 127.250 113.160 L 112 112.821 112 129.046 M 677 172 L 677 187 680.750 187.090 C 700.742 187.567, 708.058 187.150, 711.118 185.358 C 715.798 182.617, 718.225 178.766, 718.701 173.324 C 719.269 166.827, 716.729 162.206, 710.964 159.250 C 706.997 157.216, 705.157 157, 691.788 157 L 677 157 677 172 M 175.455 262.455 C 173.012 264.897, 173 265.005, 173 284.955 L 173 305 157.250 305.032 C 146.449 305.054, 141.001 305.446, 139.913 306.282 C 136.433 308.954, 136 311.682, 136 330.934 L 136 350 120.423 350 L 104.846 350 101.923 352.923 L 99 355.846 99 394.973 C 99 436.083, 99.266 438.737, 103.545 440.379 C 104.435 440.720, 126.277 441, 152.082 441 L 199 441 199.006 429.250 C 199.012 418.016, 199.080 417.631, 200.565 420.477 C 201.419 422.115, 202.547 423.720, 203.072 424.045 C 203.598 424.369, 204.119 426.742, 204.231 429.317 L 204.435 434 212.517 434 C 217.621 434, 221.058 433.542, 221.842 432.758 C 222.830 431.770, 223.267 431.815, 223.987 432.979 C 224.484 433.784, 225.253 434.056, 225.696 433.584 C 226.138 433.112, 225.938 432.525, 225.250 432.280 C 223.820 431.769, 223.527 428, 224.917 428 C 225.421 428, 226.070 428.563, 226.359 429.250 C 226.735 430.145, 227.198 430.003, 227.992 428.750 C 228.601 427.788, 229.730 427, 230.500 427 C 231.270 427, 232.359 426.212, 232.920 425.250 C 233.787 423.761, 233.970 423.948, 234.147 426.500 C 234.881 437.115, 235.761 389.491, 235.871 333.200 C 236.008 262.992, 235.969 262.353, 231.455 260.621 C 230.565 260.280, 218.153 260, 203.873 260 L 177.909 260 175.455 262.455 M 282 353.999 L 282 438.133 325.250 437.811 L 368.500 437.489 377.979 434.187 C 389.202 430.277, 395.528 426.802, 403 420.441 C 411.573 413.143, 417.732 405.294, 422.572 395.500 C 429.682 381.113, 431.318 373.431, 431.409 354 C 431.497 335.084, 429.984 327.808, 422.983 313.500 C 412.706 292.496, 398.284 280.040, 376.500 273.353 L 367.500 270.591 324.750 270.228 L 282 269.866 282 353.999 M 482.163 282.734 C 479.972 289.755, 474.570 307.200, 470.158 321.500 C 460.147 353.948, 441.927 412.964, 437.510 427.250 L 434.186 438 455.343 437.995 L 476.500 437.989 481.475 421.495 L 486.450 405 508.975 405.001 L 531.500 405.002 536.087 421.251 L 540.674 437.500 589.658 437.759 L 638.641 438.019 654.002 412.062 C 662.450 397.786, 669.679 386.302, 670.067 386.542 C 670.455 386.781, 677.461 398.442, 685.636 412.453 L 700.500 437.929 730.865 437.965 L 761.230 438 759.693 435.654 C 753.612 426.373, 706.538 351.075, 705.784 349.421 C 704.985 347.670, 708.522 341.447, 728.236 309.921 C 741.107 289.340, 751.971 271.938, 752.378 271.250 C 752.962 270.264, 748.190 270.006, 729.809 270.027 L 706.500 270.054 693.500 291.998 C 686.350 304.067, 680.150 313.838, 679.721 313.711 C 679.293 313.584, 673.383 303.810, 666.588 291.990 L 654.233 270.500 624.116 270.235 C 607.552 270.090, 594 270.213, 594 270.510 C 594 270.806, 605.489 289.039, 619.530 311.028 C 643.344 348.319, 644.974 351.164, 643.780 353.342 C 637.798 364.252, 593.478 433.873, 592.896 433.274 C 592.483 432.848, 580.717 396.050, 566.750 351.500 L 541.355 270.500 513.751 270.234 L 486.146 269.969 482.163 282.734 M 334 353.387 L 334 399 343.684 399 C 355.198 399, 359.890 397.204, 365.742 390.556 C 373.732 381.479, 377.218 370.281, 377.275 353.512 C 377.317 341.067, 375.676 333.263, 371.117 324.232 C 365.126 312.363, 359.125 308.779, 344.250 308.183 L 334 307.773 334 353.387 M 501.930 344.288 L 495.384 367.500 508.329 367.780 C 515.448 367.934, 521.456 367.877, 521.679 367.654 C 522.163 367.171, 509.996 322.818, 509.097 321.788 C 508.756 321.396, 505.530 331.521, 501.930 344.288" stroke="none" fill="#f0be39" fill-rule="evenodd"/></svg>